<?xml version="1.0" encoding="UTF-8" standalone="no"?>
<!-- Created with Inkscape (http://www.inkscape.org/) -->

<svg
   version="1.1"
   id="svg2"
   width="174.02133"
   height="53.399868"
   viewBox="0 0 174.02133 53.399868"
   sodipodi:docname="LOGO HEMISFERIO.ai"
   xmlns:inkscape="http://www.inkscape.org/namespaces/inkscape"
   xmlns:sodipodi="http://sodipodi.sourceforge.net/DTD/sodipodi-0.dtd"
   xmlns="http://www.w3.org/2000/svg"
   xmlns:svg="http://www.w3.org/2000/svg">
  <defs
     id="defs6">
    <clipPath
       clipPathUnits="userSpaceOnUse"
       id="clipPath30">
      <path
         d="M 0,40.05 H 130.516 V 0 H 0 Z"
         id="path28" />
    </clipPath>
  </defs>
  <sodipodi:namedview
     id="namedview4"
     pagecolor="#ffffff"
     bordercolor="#000000"
     borderopacity="0.25"
     inkscape:showpageshadow="2"
     inkscape:pageopacity="0.0"
     inkscape:pagecheckerboard="0"
     inkscape:deskcolor="#d1d1d1" />
  <g
     id="g8"
     inkscape:groupmode="layer"
     inkscape:label="LOGO HEMISFERIO"
     transform="matrix(1.3333333,0,0,-1.3333333,0,53.399867)">
    <g
       id="g10"
       transform="translate(42.9765,15.2724)">
      <path
         d="M 0,0 V -4.739 H -1.634 V 5.143 H 0 V 0.639 H 4.887 V 5.143 H 6.52 V -4.739 H 4.887 V 0 Z"
         style="fill:#000000;fill-opacity:1;fill-rule:nonzero;stroke:none"
         id="path12" />
    </g>
    <g
       id="g14"
       transform="translate(58.6982,20.4155)">
      <path
         d="m 0,0 v -0.639 h -5.125 v -3.532 h 3.428 V -4.81 H -5.125 V -9.244 H 0 V -9.883 H -6.758 V 0 Z"
         style="fill:#000000;fill-opacity:1;fill-rule:nonzero;stroke:none"
         id="path16" />
    </g>
    <g
       id="g18"
       transform="translate(60.5132,20.4155)">
      <path
         d="M 0,0 H 1.668 L 5.453,-7.583 H 5.529 L 9.242,0 h 1.641 V -9.883 H 9.242 v 8.095 H 9.187 L 5.202,-9.883 H 4.866 L 0.831,-1.844 H 0.719 V -9.883 H 0 Z"
         style="fill:#000000;fill-opacity:1;fill-rule:nonzero;stroke:none"
         id="path20" />
    </g>
    <path
       d="m 75.473,10.533 h -1.634 v 9.883 h 1.634 z"
       style="fill:#000000;fill-opacity:1;fill-rule:nonzero;stroke:none"
       id="path22" />
    <g
       id="g24">
      <g
         id="g26"
         clip-path="url(#clipPath30)">
        <g
           id="g32"
           transform="translate(80.5762,10.9306)">
          <path
             d="M 0,0 C 0.242,0 0.481,0.033 0.715,0.1 0.951,0.165 1.16,0.264 1.344,0.397 1.528,0.529 1.676,0.691 1.787,0.883 1.899,1.075 1.955,1.296 1.955,1.546 1.955,1.849 1.878,2.118 1.725,2.352 1.571,2.586 1.37,2.802 1.121,3.001 0.872,3.2 0.587,3.385 0.266,3.558 -0.055,3.73 -0.383,3.904 -0.715,4.079 c -0.333,0.175 -0.66,0.359 -0.982,0.55 -0.32,0.192 -0.606,0.405 -0.855,0.639 -0.248,0.233 -0.45,0.496 -0.603,0.786 -0.154,0.292 -0.231,0.626 -0.231,1.005 0,0.378 0.072,0.73 0.21,1.053 0.139,0.325 0.344,0.604 0.614,0.841 0.27,0.236 0.602,0.422 0.996,0.557 0.392,0.135 0.845,0.202 1.357,0.202 0.921,0 1.648,-0.196 2.182,-0.589 C 2.505,8.731 2.892,8.163 3.127,7.421 L 2.291,7.031 C 2.192,7.333 2.068,7.61 1.917,7.86 1.766,8.111 1.583,8.327 1.372,8.506 1.16,8.686 0.917,8.824 0.643,8.921 0.368,9.018 0.059,9.067 -0.286,9.067 -0.593,9.067 -0.861,9.022 -1.092,8.936 -1.323,8.848 -1.513,8.734 -1.665,8.595 -1.814,8.456 -1.93,8.297 -2.007,8.12 -2.083,7.942 -2.122,7.761 -2.122,7.577 c 0,-0.261 0.079,-0.498 0.238,-0.713 0.157,-0.216 0.365,-0.42 0.62,-0.614 0.256,-0.194 0.55,-0.38 0.881,-0.557 C -0.054,5.516 0.283,5.335 0.625,5.15 0.967,4.966 1.303,4.774 1.634,4.576 1.964,4.377 2.257,4.16 2.515,3.923 2.771,3.687 2.979,3.427 3.134,3.146 3.293,2.865 3.373,2.552 3.373,2.206 3.373,1.813 3.299,1.446 3.152,1.103 3.006,0.76 2.786,0.459 2.492,0.202 2.199,-0.056 1.835,-0.259 1.4,-0.409 0.964,-0.557 0.459,-0.632 -0.118,-0.632 c -0.466,0 -0.883,0.052 -1.25,0.156 -0.367,0.104 -0.693,0.256 -0.974,0.455 -0.282,0.198 -0.523,0.442 -0.721,0.73 -0.202,0.289 -0.367,0.615 -0.498,0.979 l 0.88,0.369 C -2.578,1.736 -2.439,1.448 -2.269,1.192 -2.097,0.936 -1.895,0.72 -1.665,0.542 -1.435,0.366 -1.178,0.23 -0.896,0.138 -0.615,0.046 -0.314,0 0,0"
             style="fill:#000000;fill-opacity:1;fill-rule:nonzero;stroke:none"
             id="path34" />
        </g>
        <g
           id="g36"
           transform="translate(92.165,20.4155)">
          <path
             d="m 0,0 v -0.639 h -4.741 v -3.532 h 3.429 V -4.81 H -4.741 V -9.883 H -6.374 V 0 Z"
             style="fill:#000000;fill-opacity:1;fill-rule:nonzero;stroke:none"
             id="path38" />
        </g>
        <g
           id="g40"
           transform="translate(100.2139,20.4155)">
          <path
             d="m 0,0 v -0.639 h -5.125 v -3.532 h 3.428 V -4.81 H -5.125 V -9.244 H 0 V -9.883 H -6.758 V 0 Z"
             style="fill:#000000;fill-opacity:1;fill-rule:nonzero;stroke:none"
             id="path42" />
        </g>
        <g
           id="g44"
           transform="translate(103.6631,15.6763)">
          <path
             d="m 0,0 h 0.941 c 0.369,0 0.707,0.05 1.017,0.149 0.31,0.1 0.579,0.24 0.806,0.422 C 2.993,0.754 3.171,0.975 3.299,1.235 3.427,1.495 3.49,1.786 3.49,2.108 3.49,2.401 3.438,2.671 3.337,2.919 3.234,3.167 3.092,3.381 2.911,3.558 2.729,3.735 2.513,3.875 2.262,3.974 2.01,4.073 1.735,4.123 1.437,4.123 H 0 Z M -1.635,4.739 H 1.73 C 2.316,4.739 2.831,4.676 3.271,4.548 3.71,4.42 4.077,4.242 4.37,4.013 4.663,3.783 4.885,3.511 5.032,3.197 5.182,2.882 5.256,2.538 5.256,2.164 5.256,1.857 5.198,1.57 5.086,1.302 4.972,1.034 4.81,0.794 4.601,0.579 4.391,0.363 4.139,0.177 3.847,0.018 3.553,-0.141 3.229,-0.262 2.876,-0.347 l 3.54,-4.796 H 4.523 L 1.146,-0.496 H 0 v -4.647 h -1.635 z"
             style="fill:#000000;fill-opacity:1;fill-rule:nonzero;stroke:none"
             id="path46" />
        </g>
        <path
           d="m 112.933,10.533 h -1.634 v 9.883 h 1.634 z"
           style="fill:#000000;fill-opacity:1;fill-rule:nonzero;stroke:none"
           id="path48" />
        <g
           id="g50"
           transform="translate(120.3193,10.7949)">
          <path
             d="M 0,0 C 0.555,0 1.044,0.119 1.474,0.355 1.901,0.591 2.26,0.92 2.552,1.341 2.842,1.763 3.063,2.262 3.214,2.842 3.366,3.421 3.442,4.054 3.442,4.739 3.442,5.416 3.366,6.037 3.214,6.602 3.063,7.167 2.842,7.654 2.552,8.063 2.26,8.472 1.901,8.791 1.474,9.018 1.044,9.245 0.555,9.358 0,9.358 -0.567,9.358 -1.066,9.245 -1.498,9.018 -1.928,8.791 -2.288,8.472 -2.576,8.063 -2.865,7.654 -3.083,7.167 -3.229,6.602 -3.376,6.037 -3.449,5.416 -3.449,4.739 c 0,-0.685 0.073,-1.318 0.22,-1.897 0.146,-0.58 0.364,-1.079 0.653,-1.501 C -2.288,0.92 -1.928,0.591 -1.498,0.355 -1.066,0.119 -0.567,0 0,0 m 0,-0.497 c -0.503,0 -0.983,0.063 -1.444,0.188 -0.462,0.126 -0.891,0.302 -1.285,0.529 -0.396,0.227 -0.756,0.501 -1.083,0.82 -0.326,0.318 -0.602,0.672 -0.831,1.06 -0.228,0.388 -0.405,0.804 -0.53,1.249 -0.126,0.444 -0.188,0.908 -0.188,1.39 0,0.473 0.062,0.928 0.188,1.363 0.125,0.435 0.302,0.841 0.53,1.22 0.229,0.378 0.505,0.722 0.831,1.032 0.327,0.31 0.687,0.576 1.083,0.798 0.394,0.222 0.823,0.394 1.285,0.515 0.461,0.12 0.941,0.18 1.444,0.18 0.503,0 0.984,-0.06 1.445,-0.18 C 1.905,9.546 2.334,9.374 2.729,9.152 3.125,8.93 3.485,8.664 3.812,8.354 4.139,8.044 4.414,7.7 4.643,7.322 4.87,6.943 5.047,6.537 5.173,6.102 5.299,5.667 5.361,5.212 5.361,4.739 5.361,4.262 5.299,3.8 5.173,3.352 5.047,2.905 4.87,2.488 4.643,2.1 4.414,1.712 4.139,1.358 3.812,1.04 3.485,0.721 3.125,0.447 2.729,0.22 2.334,-0.007 1.905,-0.183 1.445,-0.309 0.984,-0.434 0.503,-0.497 0,-0.497"
             style="fill:#000000;fill-opacity:1;fill-rule:nonzero;stroke:none"
             id="path52" />
        </g>
        <g
           id="g54"
           transform="translate(44.2578,29.3164)">
          <path
             d="m 0,0 c -0.359,0 -0.689,-0.064 -0.991,-0.195 -0.302,-0.131 -0.563,-0.316 -0.784,-0.556 -0.221,-0.24 -0.393,-0.531 -0.515,-0.873 -0.123,-0.342 -0.184,-0.725 -0.184,-1.151 0,-0.426 0.066,-0.809 0.201,-1.15 0.134,-0.342 0.315,-0.633 0.546,-0.873 0.232,-0.241 0.504,-0.427 0.817,-0.556 0.313,-0.131 0.649,-0.196 1.008,-0.196 0.263,0 0.499,0.036 0.71,0.109 0.21,0.072 0.399,0.174 0.564,0.308 V -3.01 H 0.249 v 0.361 H 2.372 V -5.311 C 2.198,-5.406 2.023,-5.491 1.846,-5.563 1.669,-5.635 1.479,-5.697 1.276,-5.748 1.072,-5.798 0.847,-5.836 0.601,-5.861 0.354,-5.885 0.075,-5.897 -0.235,-5.897 c -0.327,0 -0.64,0.037 -0.938,0.113 -0.298,0.075 -0.572,0.18 -0.825,0.316 -0.252,0.136 -0.48,0.301 -0.683,0.491 -0.204,0.191 -0.377,0.403 -0.52,0.634 -0.142,0.232 -0.252,0.48 -0.329,0.745 -0.076,0.265 -0.115,0.54 -0.115,0.823 0,0.284 0.037,0.56 0.111,0.83 0.074,0.269 0.18,0.522 0.316,0.76 0.137,0.237 0.304,0.455 0.503,0.653 0.197,0.199 0.421,0.369 0.668,0.512 0.248,0.144 0.518,0.255 0.81,0.335 0.293,0.08 0.604,0.12 0.934,0.12 0.316,0 0.608,-0.043 0.874,-0.13 C 0.837,0.218 1.081,0.103 1.301,-0.041 1.522,-0.184 1.718,-0.35 1.889,-0.539 2.06,-0.726 2.207,-0.921 2.33,-1.125 L 1.898,-1.42 C 1.646,-0.931 1.368,-0.572 1.06,-0.343 0.752,-0.114 0.399,0 0,0"
             style="fill:#000000;fill-opacity:1;fill-rule:nonzero;stroke:none"
             id="path56" />
        </g>
        <g
           id="g58"
           transform="translate(49.0185,26.7114)">
          <path
             d="M 0,0 H 0.577 C 0.802,0 1.01,0.031 1.199,0.091 1.388,0.152 1.553,0.238 1.692,0.35 1.833,0.461 1.94,0.597 2.019,0.755 2.098,0.915 2.137,1.093 2.137,1.29 2.137,1.469 2.105,1.635 2.043,1.787 1.98,1.939 1.893,2.069 1.782,2.178 1.671,2.287 1.538,2.371 1.385,2.432 1.23,2.493 1.062,2.523 0.881,2.523 H 0 Z M -1,2.901 H 1.06 C 1.419,2.901 1.732,2.862 2.002,2.784 2.271,2.706 2.496,2.596 2.676,2.456 2.854,2.315 2.99,2.148 3.082,1.957 3.173,1.764 3.218,1.554 3.218,1.324 3.218,1.137 3.183,0.96 3.114,0.797 3.043,0.633 2.944,0.485 2.816,0.354 2.688,0.223 2.534,0.107 2.355,0.011 2.175,-0.086 1.978,-0.16 1.761,-0.212 L 3.927,-3.149 H 2.77 L 0.701,-0.304 H 0 v -2.845 h -1 z"
             style="fill:#000000;fill-opacity:1;fill-rule:nonzero;stroke:none"
             id="path60" />
        </g>
        <g
           id="g62"
           transform="translate(53.5874,29.6118)">
          <path
             d="M 0,0 H 1 V -3.925 C 1,-4.184 1.043,-4.426 1.13,-4.653 1.216,-4.88 1.342,-5.08 1.504,-5.25 1.666,-5.422 1.862,-5.556 2.09,-5.654 c 0.227,-0.099 0.482,-0.148 0.764,-0.148 0.285,0 0.542,0.049 0.77,0.148 0.228,0.098 0.421,0.232 0.581,0.404 0.159,0.17 0.282,0.37 0.367,0.597 0.086,0.227 0.128,0.469 0.128,0.728 V 0 H 5.141 V -3.925 C 5.141,-4.236 5.092,-4.527 4.994,-4.801 4.895,-5.075 4.74,-5.315 4.53,-5.522 4.318,-5.729 4.049,-5.892 3.72,-6.013 3.391,-6.133 2.995,-6.192 2.534,-6.192 c -0.41,0 -0.774,0.059 -1.09,0.179 C 1.128,-5.892 0.863,-5.729 0.649,-5.52 0.436,-5.312 0.273,-5.068 0.165,-4.79 0.054,-4.512 0,-4.217 0,-3.904 Z"
             style="fill:#000000;fill-opacity:1;fill-rule:nonzero;stroke:none"
             id="path64" />
        </g>
        <g
           id="g66"
           transform="translate(61.1167,26.7026)">
          <path
             d="m 0,0 c 0.111,-0.032 0.231,-0.062 0.361,-0.091 0.13,-0.029 0.262,-0.044 0.395,-0.044 0.217,0 0.406,0.032 0.567,0.098 0.161,0.065 0.295,0.155 0.401,0.269 0.108,0.115 0.187,0.248 0.24,0.4 0.053,0.152 0.079,0.314 0.079,0.489 0,0.202 -0.035,0.386 -0.105,0.554 C 1.868,1.841 1.773,1.981 1.654,2.098 1.534,2.213 1.393,2.304 1.23,2.367 1.068,2.431 0.895,2.462 0.709,2.462 H 0 Z M -1,2.91 H 0.884 C 1.195,2.91 1.486,2.871 1.759,2.795 2.031,2.718 2.267,2.605 2.468,2.458 2.669,2.311 2.828,2.13 2.944,1.915 3.062,1.701 3.12,1.456 3.12,1.182 3.12,0.906 3.063,0.667 2.951,0.463 2.838,0.258 2.69,0.089 2.507,-0.046 2.323,-0.18 2.114,-0.28 1.878,-0.345 1.643,-0.41 1.404,-0.443 1.162,-0.443 1.06,-0.443 0.952,-0.44 0.838,-0.435 0.724,-0.428 0.614,-0.42 0.508,-0.41 0.403,-0.401 0.305,-0.39 0.216,-0.378 0.126,-0.367 0.054,-0.353 0,-0.338 V -3.14 h -1 z"
             style="fill:#000000;fill-opacity:1;fill-rule:nonzero;stroke:none"
             id="path68" />
        </g>
        <g
           id="g70"
           transform="translate(68.1387,23.7231)">
          <path
             d="M 0,0 C 0.339,0 0.64,0.073 0.9,0.218 1.164,0.362 1.384,0.563 1.562,0.821 1.739,1.079 1.875,1.385 1.968,1.74 2.062,2.094 2.106,2.481 2.106,2.901 2.106,3.315 2.062,3.696 1.968,4.042 1.875,4.387 1.739,4.686 1.562,4.936 1.384,5.186 1.164,5.381 0.9,5.52 0.64,5.659 0.339,5.729 0,5.729 -0.349,5.729 -0.653,5.659 -0.917,5.52 -1.181,5.381 -1.4,5.186 -1.576,4.936 -1.753,4.686 -1.888,4.387 -1.977,4.042 -2.066,3.696 -2.111,3.315 -2.111,2.901 -2.111,2.481 -2.066,2.094 -1.977,1.74 -1.888,1.385 -1.753,1.079 -1.576,0.821 -1.4,0.563 -1.181,0.362 -0.917,0.218 -0.653,0.073 -0.349,0 0,0 m 0,-0.303 c -0.309,0 -0.604,0.037 -0.885,0.114 -0.281,0.077 -0.545,0.185 -0.786,0.324 -0.242,0.139 -0.464,0.306 -0.662,0.501 -0.2,0.197 -0.369,0.412 -0.51,0.65 -0.138,0.237 -0.247,0.492 -0.324,0.765 -0.076,0.271 -0.115,0.555 -0.115,0.85 0,0.29 0.039,0.568 0.115,0.834 0.077,0.266 0.186,0.515 0.324,0.746 0.141,0.232 0.31,0.443 0.51,0.633 0.198,0.19 0.42,0.352 0.662,0.489 0.241,0.135 0.505,0.24 0.786,0.314 C -0.604,5.992 -0.309,6.028 0,6.028 0.308,6.028 0.604,5.992 0.884,5.917 1.167,5.843 1.429,5.738 1.671,5.603 1.914,5.466 2.134,5.304 2.334,5.114 2.532,4.924 2.702,4.713 2.842,4.481 2.981,4.25 3.09,4.001 3.167,3.735 3.244,3.469 3.281,3.191 3.281,2.901 3.281,2.609 3.244,2.326 3.167,2.053 3.09,1.779 2.981,1.523 2.842,1.286 2.702,1.048 2.532,0.833 2.334,0.636 2.134,0.441 1.914,0.274 1.671,0.135 1.429,-0.004 1.167,-0.112 0.884,-0.189 0.604,-0.266 0.308,-0.303 0,-0.303"
             style="fill:#000000;fill-opacity:1;fill-rule:nonzero;stroke:none"
             id="path72" />
        </g>
        <g
           id="g74"
           transform="translate(29.0967,26.4858)">
          <path
             d="m 0,0 c 0.208,-0.425 0.41,-0.858 0.606,-1.3 4.079,-9.172 4.159,-18.301 -0.018,-20.24 -2.691,-1.249 -6.587,0.869 -9.996,4.898 2.407,-2.603 4.861,-3.841 6.63,-3.021 3.117,1.447 2.923,8.738 -0.434,16.288 -0.2,0.448 -0.406,0.887 -0.618,1.317 0,0 -1.104,2.075 0.796,3.133 C -1.143,2.129 0,0 0,0"
             style="fill:#8cb63c;fill-opacity:1;fill-rule:nonzero;stroke:none"
             id="path76" />
        </g>
        <g
           id="g78"
           transform="translate(12.9604,23.2187)">
          <path
             d="M 0,0 C 0.262,0.399 0.534,0.797 0.816,1.194 6.668,9.442 14.445,14.166 18.151,11.495 20.541,9.773 20.638,5.28 18.859,0.24 19.908,3.675 19.766,6.457 18.196,7.588 15.429,9.582 9.282,5.695 4.465,-1.094 4.179,-1.497 3.903,-1.902 3.64,-2.307 c 0,0 -1.236,-2.024 -3.073,-0.9 C -1.262,-2.087 0,0 0,0"
             style="fill:#d67c1c;fill-opacity:1;fill-rule:nonzero;stroke:none"
             id="path80" />
        </g>
        <g
           id="g82"
           transform="translate(23.5952,10.7334)">
          <path
             d="m 0,0 c -0.47,0.026 -0.944,0.062 -1.422,0.106 -9.931,0.924 -17.788,5.33 -17.318,9.94 0.303,2.97 4.101,5.345 9.289,6.356 -3.455,-0.832 -5.768,-2.375 -5.966,-4.327 -0.351,-3.44 5.991,-6.845 14.165,-7.606 0.485,-0.045 0.966,-0.079 1.442,-0.104 0,0 2.34,-0.05 2.278,-2.234 C 2.405,-0.042 0,0 0,0"
             style="fill:#1f5da6;fill-opacity:1;fill-rule:nonzero;stroke:none"
             id="path84" />
        </g>
      </g>
    </g>
  </g>
</svg>
